<?xml version="1.0" encoding="utf-8"?>
<!-- Generator: Adobe Illustrator 19.0.0, SVG Export Plug-In . SVG Version: 6.00 Build 0)  -->
<svg version="1.1" id="Laag_1" xmlns="http://www.w3.org/2000/svg" xmlns:xlink="http://www.w3.org/1999/xlink" x="0px" y="0px"
	 viewBox="-263.9 241.2 141.7 115.1" style="enable-background:new -263.9 241.2 141.7 115.1;" xml:space="preserve">
<path d="M-122.1,254.8c-5.2,2.3-10.8,3.9-16.7,4.6c6-3.6,10.6-9.3,12.8-16.1c-5.6,3.3-11.8,5.8-18.5,7.1c-5.3-5.7-12.9-9.2-21.2-9.2
	c-16.1,0-29.1,13-29.1,29.1c0,2.3,0.2,4.5,0.7,6.6c-24.2-1.2-45.6-12.8-59.9-30.4c-2.5,4.3-3.9,9.3-3.9,14.6
	c0,10.1,5.1,19,12.9,24.2c-4.8-0.1-9.2-1.5-13.2-3.6c0,0.1,0,0.2,0,0.4c0,14.1,10,25.9,23.3,28.5c-2.4,0.7-5,1-7.7,1
	c-1.9,0-3.7-0.2-5.5-0.5c3.7,11.5,14.4,20,27.2,20.2c-10,7.8-22.5,12.5-36.1,12.5c-2.4,0-4.6-0.1-6.9-0.4
	c12.9,8.3,28.2,13.1,44.6,13.1c53.5,0,82.7-44.3,82.7-82.7c0-1.3,0-2.5-0.1-3.8C-131,265.8-126,260.7-122.1,254.8L-122.1,254.8z"/>
</svg>
